<?xml version="1.0" encoding="UTF-8"?>
<!-- Generator: https://ezgif.com/webp-to-svg -->
<svg version="1.1" xmlns="http://www.w3.org/2000/svg" width="32" height="32">
<path d="M0 0 C10.56 0 21.12 0 32 0 C32 10.56 32 21.12 32 32 C21.44 32 10.88 32 0 32 C0 21.44 0 10.88 0 0 Z " fill="#F6F6F6" transform="translate(0,0)"/>
<path d="M0 0 C10.56 0 21.12 0 32 0 C32 10.56 32 21.12 32 32 C21.44 32 10.88 32 0 32 C0 21.44 0 10.88 0 0 Z M4 7 C3.71 9.12 3.71 9.12 3.77 11.54 C3.77 12.43 3.77 13.32 3.78 14.24 C3.79 15.17 3.8 16.1 3.81 17.06 C3.81 18 3.81 18.94 3.81 19.9 C3.44 24.28 3.44 24.28 5 28 C6.55 28.1 8.1 28.13 9.66 28.13 C10.6 28.13 11.54 28.14 12.5 28.14 C13.99 28.13 13.99 28.13 15.5 28.12 C16.49 28.13 17.48 28.13 18.5 28.14 C19.91 28.13 19.91 28.13 21.34 28.13 C22.65 28.13 22.65 28.13 23.97 28.13 C26 28.22 26 28.22 27 27 C27.09 25.37 27.11 23.73 27.1 22.09 C27.09 20.61 27.09 20.61 27.09 19.09 C27.08 18.05 27.07 17.01 27.06 15.94 C27.06 14.89 27.05 13.85 27.05 12.77 C27.04 10.18 27.02 7.59 27 5 C23.54 4.94 20.08 4.91 16.62 4.88 C15.64 4.86 14.66 4.84 13.64 4.82 C12.7 4.82 11.76 4.81 10.79 4.8 C9.92 4.79 9.05 4.78 8.15 4.77 C5.79 4.79 5.79 4.79 4 7 Z " fill="#118510" transform="translate(0,0)"/>
<path d="M0 0 C0.87 0.01 1.74 0.02 2.63 0.03 C3.58 0.04 4.52 0.04 5.49 0.05 C6.47 0.07 7.46 0.08 8.47 0.1 C9.46 0.11 10.46 0.12 11.48 0.13 C13.93 0.15 16.39 0.19 18.85 0.23 C17.86 1.71 17.86 1.71 16.85 3.23 C16.52 2.9 16.19 2.57 15.85 2.23 C13.82 2.32 11.8 2.47 9.78 2.66 C8.68 2.77 7.57 2.87 6.44 2.97 C5.15 3.1 5.15 3.1 3.85 3.23 C6.82 3.56 9.79 3.89 12.85 4.23 C12.85 4.89 12.85 5.55 12.85 6.23 C10.21 6.23 7.57 6.23 4.85 6.23 C4.85 7.55 4.85 8.87 4.85 10.23 C6.83 10.23 8.81 10.23 10.85 10.23 C10.85 10.89 10.85 11.55 10.85 12.23 C8.87 12.23 6.89 12.23 4.85 12.23 C4.85 13.55 4.85 14.87 4.85 16.23 C7.49 16.23 10.13 16.23 12.85 16.23 C12.85 16.89 12.85 17.55 12.85 18.23 C9.22 18.23 5.59 18.23 1.85 18.23 C1.52 13.28 1.19 8.33 0.85 3.23 C-0.14 2.9 -1.13 2.57 -2.15 2.23 C-1.82 8.83 -1.49 15.43 -1.15 22.23 C5.12 22.23 11.39 22.23 17.85 22.23 C17.85 22.56 17.85 22.89 17.85 23.23 C14.37 23.26 10.89 23.27 7.41 23.29 C5.92 23.3 5.92 23.3 4.4 23.31 C3.45 23.32 2.51 23.32 1.54 23.32 C0.22 23.33 0.22 23.33 -1.11 23.34 C-3.15 23.23 -3.15 23.23 -4.15 22.23 C-4.41 18.92 -4.34 15.6 -4.34 12.29 C-4.35 11.36 -4.37 10.42 -4.38 9.46 C-4.38 8.57 -4.38 7.68 -4.39 6.76 C-4.39 5.53 -4.39 5.53 -4.4 4.27 C-4.04 1.26 -2.99 0.32 0 0 Z " fill="#E3EDE3" transform="translate(8.15478515625,4.77294921875)"/>
<path d="M0 0 C10.56 0 21.12 0 32 0 C32 10.56 32 21.12 32 32 C22.43 32 12.86 32 3 32 C3 31.67 3 31.34 3 31 C13.39 30.51 13.39 30.51 24 30 C24 29.67 24 29.34 24 29 C25.65 29 27.3 29 29 29 C28.34 28.34 27.68 27.68 27 27 C26.77 24.66 26.77 24.66 26.8 21.77 C26.81 20.74 26.82 19.71 26.82 18.65 C26.84 17.57 26.86 16.49 26.88 15.38 C26.88 14.29 26.89 13.2 26.9 12.08 C26.93 9.39 26.96 6.69 27 4 C27.99 4 28.98 4 30 4 C30.33 3.01 30.66 2.02 31 1 C21.1 1.33 11.2 1.66 1 2 C0.67 1.34 0.34 0.68 0 0 Z " fill="#4B6249" transform="translate(0,0)"/>
<path d="M0 0 C0.33 0 0.66 0 1 0 C1 8.58 1 17.16 1 26 C-12.37 26.49 -12.37 26.49 -26 27 C-25.67 25.68 -25.34 24.36 -25 23 C-22.44 21.72 -20.63 21.89 -17.77 21.9 C-16.74 21.91 -15.71 21.91 -14.65 21.91 C-13.03 21.92 -13.03 21.92 -11.38 21.94 C-9.74 21.94 -9.74 21.94 -8.08 21.95 C-5.39 21.96 -2.69 21.98 0 22 C0 14.74 0 7.48 0 0 Z " fill="#040603" transform="translate(28,5)"/>
<path d="M0 0 C7.92 0.33 15.84 0.66 24 1 C23.67 1.66 23.34 2.32 23 3 C22.05 3.04 22.05 3.04 21.09 3.08 C18.25 3.19 15.4 3.31 12.56 3.44 C11.07 3.5 11.07 3.5 9.55 3.56 C8.14 3.62 8.14 3.62 6.69 3.68 C5.38 3.74 5.38 3.74 4.04 3.79 C2.01 3.78 2.01 3.78 1 5 C0.87 6.51 0.8 8.03 0.75 9.55 C0.72 10.48 0.69 11.4 0.65 12.36 C0.59 14.32 0.54 16.27 0.48 18.23 C0.45 19.16 0.41 20.09 0.38 21.05 C0.35 21.9 0.33 22.76 0.3 23.63 C-0.02 26.14 -0.74 27.82 -2 30 C-2.66 30 -3.32 30 -4 30 C-3.67 28.02 -3.34 26.04 -3 24 C-2.34 24 -1.68 24 -1 24 C-1.01 23.42 -1.01 22.83 -1.02 22.23 C-1.04 19.57 -1.05 16.91 -1.06 14.25 C-1.07 13.33 -1.08 12.41 -1.09 11.46 C-1.09 10.57 -1.09 9.68 -1.1 8.77 C-1.1 7.95 -1.11 7.13 -1.11 6.29 C-1 4 -1 4 0 0 Z " fill="#2A7728" transform="translate(4,2)"/>
<path d="M0 0 C3.3 0 6.6 0 10 0 C10 0.66 10 1.32 10 2 C7.36 2 4.72 2 2 2 C2 3.32 2 4.64 2 6 C3.98 6 5.96 6 8 6 C8 6.66 8 7.32 8 8 C6.02 8 4.04 8 2 8 C2 9.32 2 10.64 2 12 C4.64 12 7.28 12 10 12 C10 12.66 10 13.32 10 14 C6.7 14 3.4 14 0 14 C0 9.38 0 4.76 0 0 Z " fill="#2F2F2F" transform="translate(11,9)"/>
<path d="M0 0 C7.59 0 15.18 0 23 0 C23 9.24 23 18.48 23 28 C22.67 28 22.34 28 22 28 C22 19.75 22 11.5 22 3 C17 2.71 17 2.71 12.01 2.43 C7.95 2.19 4.01 1.75 0 1 C0 0.67 0 0.34 0 0 Z " fill="#0C470C" transform="translate(8,1)"/>
<path d="M0 0 C2.88 -0.12 2.88 -0.12 6 0 C8 2 8 2 8 4 C5.36 4 2.72 4 0 4 C0 2.68 0 1.36 0 0 Z " fill="#FDFDFD" transform="translate(13,17)"/>
</svg>
